<?xml version="1.0" standalone="no"?>
<!DOCTYPE svg PUBLIC "-//W3C//DTD SVG 20010904//EN"
 "http://www.w3.org/TR/2001/REC-SVG-20010904/DTD/svg10.dtd">
<svg version="1.0" xmlns="http://www.w3.org/2000/svg"
 width="512.000000pt" height="512.000000pt" viewBox="0 0 512.000000 512.000000"
 preserveAspectRatio="xMidYMid meet">
<metadata>
Created by potrace 1.14, written by Peter Selinger 2001-2017
</metadata>
<g transform="translate(0.000000,512.000000) scale(0.100000,-0.100000)"
fill="#000000" stroke="none">
<path d="M0 2560 l0 -2560 2560 0 2560 0 0 2560 0 2560 -2560 0 -2560 0 0
-2560z m4439 1404 l-56 -56 -32 20 c-38 23 -33 29 54 65 90 38 95 33 34 -29z
m-3656 -65 c91 -46 93 -49 55 -72 l-32 -19 -48 53 c-70 79 -67 84 25 38z
m2197 -26 c318 -104 541 -342 627 -672 21 -81 26 -123 28 -266 3 -156 3 -161
-5 -60 -25 345 -125 585 -320 769 -117 110 -251 188 -415 242 -51 17 -59 22
-30 18 22 -4 74 -17 115 -31z m1390 22 c0 -3 -18 -30 -39 -59 -70 -94 -283
-283 -458 -404 l-31 -22 -26 46 c-14 25 -24 50 -21 54 10 16 182 128 214 138
19 7 52 12 73 12 50 0 46 18 -10 45 -23 11 -42 23 -42 26 0 13 58 31 113 36
50 5 55 8 45 21 -7 8 -29 22 -48 30 l-35 14 37 19 c47 24 228 59 228 44z
m-3420 -126 c36 -10 78 -27 94 -38 l28 -19 -35 -11 c-65 -22 -64 -37 2 -50 33
-6 70 -20 82 -30 l23 -18 -46 -21 c-64 -28 -66 -38 -8 -45 64 -8 91 -23 195
-108 l86 -71 -24 -27 c-13 -14 -29 -34 -34 -44 -9 -17 -20 -10 -109 66 -120
102 -305 302 -357 387 l-38 61 38 -6 c21 -4 67 -15 103 -26z m776 -161 c-88
-89 -132 -165 -163 -281 -22 -79 -24 -313 -4 -482 15 -131 10 -362 -9 -428 -6
-21 -10 -43 -8 -49 6 -16 75 130 89 187 7 27 14 44 17 37 14 -44 -84 -255
-157 -333 l-49 -54 34 70 c66 137 80 342 43 635 -37 291 -2 470 123 638 30 41
146 142 163 142 1 0 -34 -37 -79 -82z m939 -375 c33 -168 113 -312 237 -429
69 -65 70 -67 28 -43 -74 40 -170 144 -217 234 -23 44 -46 99 -52 122 -18 68
-31 191 -23 225 l7 33 3 -35 c1 -19 9 -68 17 -107z m769 -617 c15 -33 37 -74
50 -90 31 -41 36 -88 37 -306 1 -249 -23 -410 -83 -549 -83 -193 -375 -487
-647 -651 -108 -64 -149 -76 -219 -62 -197 41 -611 429 -733 687 -72 153 -120
325 -146 524 -14 113 -14 115 11 205 27 99 42 183 51 291 3 39 8 95 11 125 l6
55 25 -85 c31 -110 88 -231 124 -266 29 -28 30 -44 1 -44 -9 0 -34 -8 -55 -18
-39 -17 -38 -17 125 -17 150 0 169 -2 235 -26 66 -23 71 -24 55 -6 -47 52
-182 94 -274 85 -31 -3 -34 0 -64 60 -18 35 -34 75 -37 89 l-5 25 24 -28 c13
-16 23 -32 24 -36 0 -8 90 -73 113 -81 19 -7 16 4 -9 33 -23 27 -64 117 -64
141 0 18 5 14 30 -23 36 -54 104 -119 149 -142 17 -9 31 -15 31 -13 0 3 -10
26 -22 53 -26 60 -48 140 -48 177 0 25 6 20 50 -46 77 -116 166 -187 232 -187
20 0 19 3 -12 30 l-35 30 50 -25 c28 -14 67 -28 87 -31 l37 -6 -19 51 c-11 28
-20 55 -20 59 0 5 30 -6 68 -24 113 -54 114 -54 80 13 -16 32 -31 83 -34 113
l-5 55 19 -40 c29 -61 67 -101 124 -129 46 -23 64 -26 154 -26 l101 0 -8 43
c-13 69 -11 72 26 24 20 -26 44 -51 55 -57 18 -10 20 -7 20 31 l0 42 53 -58
c52 -57 52 -58 122 -64 39 -4 81 -13 93 -20 13 -7 25 -11 26 -9 2 2 -16 102
-40 223 -24 121 -43 227 -43 235 0 8 21 -50 48 -130 26 -80 60 -172 75 -204z
m-1767 62 c-3 -7 -5 -2 -5 12 0 14 2 19 5 13 2 -7 2 -19 0 -25z m-10 -60 c-3
-7 -5 -2 -5 12 0 14 2 19 5 13 2 -7 2 -19 0 -25z m2369 -1753 c-3 -83 -12
-159 -24 -210 -22 -86 -61 -199 -68 -193 -2 3 9 56 25 119 38 147 55 296 49
423 l-4 101 13 -55 c10 -38 12 -95 9 -185z"/>
<path d="M3093 2460 c-54 -8 -125 -43 -155 -77 -16 -18 -11 -17 55 6 66 24 85
26 236 26 162 0 163 0 124 17 -39 17 -151 39 -188 37 -11 -1 -43 -5 -72 -9z"/>
<path d="M2026 2360 c-16 -5 -33 -7 -38 -4 -4 3 -8 1 -8 -5 0 -5 -14 -8 -31
-6 -28 4 -30 3 -17 -13 12 -15 11 -15 -14 1 -28 18 -38 11 -16 -11 18 -18 -23
-16 -50 4 -30 21 -28 6 6 -29 l27 -30 -48 7 c-52 6 -55 -4 -7 -24 19 -8 29
-18 26 -26 -4 -9 2 -14 16 -14 21 0 21 0 2 -21 -19 -21 -19 -22 3 -15 27 8 39
-9 21 -31 -11 -14 -10 -15 10 -9 16 6 24 3 30 -11 4 -10 14 -18 22 -18 8 0 14
-4 13 -10 -1 -5 11 -10 25 -11 15 0 52 -4 82 -7 l55 -7 -68 23 c-73 26 -111
49 -138 88 -40 56 -32 79 38 121 l28 16 -3 -44 c-4 -38 0 -48 26 -74 25 -24
39 -30 75 -30 38 0 49 5 71 31 17 20 26 43 26 65 0 53 10 47 85 -51 10 -14 13
-15 9 -4 -3 10 0 20 6 24 8 5 4 12 -10 22 -17 12 -19 17 -9 24 11 7 11 9 -2 9
-8 0 -26 12 -40 26 -45 49 -126 67 -203 44z m139 -70 c0 -22 -39 -19 -43 3 -3
15 1 18 20 15 12 -2 23 -10 23 -18z"/>
<path d="M3030 2349 c-19 -12 -41 -30 -48 -40 -7 -11 -21 -19 -30 -19 -13 0
-14 -2 -3 -9 10 -7 8 -12 -9 -24 -12 -9 -17 -18 -11 -21 5 -4 8 -14 5 -24 -3
-9 4 -2 17 17 15 22 24 29 27 20 28 -107 112 -159 201 -123 51 20 82 62 89
120 l5 45 23 -22 c28 -26 25 -46 -13 -97 -27 -36 -63 -57 -143 -83 l-55 -18
55 6 c30 4 67 7 82 8 14 0 26 5 25 10 -1 6 5 9 14 9 9 -1 16 6 15 15 -1 12 7
15 28 14 22 -2 26 1 18 9 -23 23 -14 41 15 33 27 -6 27 -6 9 14 -19 21 -19 21
5 22 13 0 18 3 12 6 -20 7 -15 20 10 26 12 4 31 13 42 21 18 14 16 15 -30 9
l-50 -6 28 30 c15 16 27 32 27 35 0 4 -12 0 -27 -8 -36 -18 -62 -19 -45 -2 21
21 13 29 -13 12 -21 -14 -24 -14 -20 -2 5 12 0 15 -19 13 -14 -2 -26 0 -26 4
0 4 -8 7 -17 8 -155 15 -157 15 -193 -8z m157 -30 c14 -14 6 -39 -12 -39 -18
0 -28 17 -21 35 6 18 18 19 33 4z"/>
<path d="M2560 1571 c32 -27 65 -26 98 0 l27 22 -25 -8 c-31 -10 -68 -10 -100
0 l-25 7 25 -21z"/>
<path d="M2437 1439 c-54 -4 -100 -9 -103 -12 -13 -13 99 -16 166 -4 95 17 64
24 -63 16z"/>
<path d="M2676 1441 c-30 -11 134 -32 174 -23 34 9 33 9 -25 16 -112 12 -130
13 -149 7z"/>
<path d="M2550 1320 c8 -5 40 -10 70 -10 30 0 62 5 70 10 10 7 -11 10 -70 10
-59 0 -80 -3 -70 -10z"/>
</g>
</svg>
