<?xml version="1.0" standalone="no"?>
<!DOCTYPE svg PUBLIC "-//W3C//DTD SVG 20010904//EN"
 "http://www.w3.org/TR/2001/REC-SVG-20010904/DTD/svg10.dtd">
<svg version="1.0" xmlns="http://www.w3.org/2000/svg"
 width="736.000000pt" height="736.000000pt" viewBox="0 0 736.000000 736.000000"
 preserveAspectRatio="xMidYMid meet">
<metadata>
Created by potrace 1.14, written by Peter Selinger 2001-2017
</metadata>
<g transform="translate(0.000000,736.000000) scale(0.100000,-0.100000)"
fill="#000000" stroke="none">
<path d="M633 7283 c-177 -232 -446 -676 -529 -874 -51 -122 -104 -311 -103
-371 1 -51 1 -50 19 37 28 140 94 345 132 410 6 11 37 67 68 125 91 169 116
211 249 415 42 64 172 246 209 293 19 23 30 42 24 42 -6 0 -37 -35 -69 -77z"/>
<path d="M895 7330 c-4 -17 -11 -27 -16 -24 -15 9 -39 -16 -32 -33 4 -10 2
-14 -4 -10 -21 13 -216 -224 -365 -443 -226 -332 -332 -599 -389 -975 -33
-218 -30 -597 6 -805 4 -22 3 -23 -5 -5 -8 18 -73 303 -83 365 -3 15 -5 9 -6
-16 -4 -145 137 -621 331 -1111 46 -115 78 -209 74 -218 -4 -12 -16 -16 -44
-14 -21 2 -43 0 -50 -5 -17 -10 -114 9 -159 33 -36 18 -102 79 -137 126 -14
18 -15 13 -16 -65 0 -85 0 -85 38 -125 83 -88 154 -133 246 -156 25 -6 46 -15
46 -20 0 -12 -37 -11 -45 1 -8 13 -45 13 -45 0 0 -5 7 -10 15 -10 8 0 15 -4
15 -10 0 -5 -11 -10 -25 -10 -24 0 -29 9 -28 48 1 15 1 15 -32 2 -14 -5 -24
-6 -21 -1 3 5 -4 11 -17 15 -35 9 -43 6 -23 -9 17 -13 16 -14 -20 -11 -21 2
-40 9 -40 15 -1 6 -2 16 -3 21 0 6 -14 10 -31 10 l-30 0 0 -1807 0 -1808 38
58 c52 80 203 229 289 287 96 64 172 92 253 94 l64 1 51 -92 c61 -112 118
-173 197 -208 48 -21 67 -25 101 -20 120 20 276 151 338 282 30 64 37 73 62
73 23 0 27 -3 22 -23 -3 -12 -9 -132 -15 -267 -6 -135 -13 -293 -17 -352 l-6
-108 140 0 140 0 6 137 c4 75 7 167 7 205 0 39 4 68 10 68 6 0 48 -20 94 -45
99 -54 96 -47 96 -236 l0 -129 160 0 160 0 0 86 c0 75 2 85 16 80 9 -3 26 -9
38 -12 14 -3 41 -34 70 -80 l48 -74 99 0 c55 0 99 2 99 5 0 4 -7 20 -16 36
-15 30 -15 31 8 23 125 -40 218 -64 251 -64 55 0 44 7 -49 31 -43 11 -116 31
-160 44 l-81 25 -39 72 c-41 77 -137 291 -149 330 -4 13 -25 71 -46 130 -21
60 -39 116 -39 125 0 14 30 28 133 61 228 74 371 152 460 252 65 72 82 148 93
410 6 126 -6 356 -22 447 l-5 25 28 -18 c425 -286 565 -372 769 -471 149 -73
190 -76 304 -22 105 50 356 213 549 357 l164 122 -6 -47 c-4 -27 -11 -77 -17
-113 -32 -212 23 -593 100 -689 63 -77 227 -167 434 -237 83 -28 130 -48 129
-56 -4 -18 -53 -162 -101 -293 -52 -144 -101 -255 -148 -343 l-39 -70 -95 -22
c-52 -12 -110 -26 -129 -31 -19 -4 -38 -6 -42 -3 -4 2 -10 0 -14 -6 -11 -17
85 -11 160 10 38 11 77 20 87 20 11 0 15 -6 11 -20 -5 -19 0 -20 113 -20 l119
0 22 57 23 58 100 31 100 31 0 -88 0 -89 109 0 108 0 -5 134 -5 133 123 59
c68 32 116 60 107 62 -13 3 -115 -41 -210 -90 -18 -9 -18 -5 -12 69 7 83 33
283 42 321 5 21 9 22 115 22 l111 0 -8 -200 c-4 -110 -4 -270 0 -355 l7 -155
149 0 149 0 -5 183 c-3 100 -7 245 -9 322 l-4 140 19 -75 c44 -178 114 -273
212 -286 85 -12 172 55 310 239 99 132 178 214 224 233 26 12 47 12 101 4 64
-11 164 -34 197 -46 13 -6 15 166 15 1640 l0 1646 -24 0 c-17 0 -27 -7 -31
-22 -17 -59 -27 -77 -43 -71 -13 6 -13 8 4 15 15 7 14 7 -6 3 -55 -12 -165
-17 -150 -6 10 7 -3 8 -45 4 -57 -6 -85 -20 -85 -41 0 -6 -7 -13 -16 -16 -14
-5 -16 -1 -10 24 3 17 2 29 -2 26 -4 -2 -8 3 -9 12 -1 9 -15 87 -32 172 -51
259 -57 339 -38 466 9 60 20 183 23 274 8 185 -1 240 -38 240 -17 0 -19 4 -14
28 4 15 9 95 13 177 5 140 4 154 -16 199 -14 33 -24 86 -31 165 -14 161 -25
224 -59 334 -21 67 -33 133 -40 224 -23 283 -108 616 -226 885 -64 145 -145
281 -159 267 -3 -3 8 -24 24 -46 39 -53 130 -229 130 -251 0 -9 -12 3 -28 29
-26 44 -64 96 -89 124 -7 8 -13 18 -13 24 0 6 -4 11 -9 11 -6 0 -25 25 -43 55
-29 49 -36 55 -65 55 -18 0 -33 -2 -33 -5 0 -2 26 -44 57 -92 55 -85 192 -347
246 -468 67 -152 157 -409 157 -446 0 -8 -22 40 -49 106 -68 166 -171 364
-268 512 -29 44 -53 84 -53 88 0 12 -122 179 -146 201 -13 12 -21 24 -18 27
10 9 53 -34 117 -116 33 -42 62 -75 65 -73 6 6 -103 143 -170 214 l-49 52
-155 0 c-131 0 -154 -2 -154 -15 0 -14 -2 -14 -23 0 -18 12 -97 19 -97 9 0 -1
27 -43 60 -93 120 -181 393 -712 459 -892 174 -476 269 -1245 241 -1959 -10
-257 -26 -460 -29 -380 -10 246 -52 814 -76 1020 -75 637 -186 1084 -329 1313
-76 122 -169 191 -311 230 -33 9 -82 23 -110 30 l-50 14 56 27 c81 39 146 107
165 173 28 97 2 249 -72 410 -8 17 -14 36 -14 42 0 6 -5 11 -11 11 -5 0 -7 -5
-3 -12 4 -6 3 -8 -4 -5 -5 4 -8 16 -5 27 3 12 0 20 -7 20 -7 0 -10 7 -6 16 5
14 4 15 -8 5 -10 -8 -16 -9 -21 -2 -8 14 -1025 14 -1025 0 0 -5 -7 -9 -15 -9
-8 0 -15 5 -15 10 0 16 -47 11 -54 -6 -9 -24 -7 -41 3 -25 8 12 12 12 25 2 9
-8 16 -20 16 -27 0 -23 -31 -16 -58 13 -22 24 -23 28 -9 31 9 2 17 8 17 13 0
5 -30 9 -66 9 -63 0 -65 -1 -59 -22 6 -22 5 -22 -8 1 -11 18 -16 20 -20 10 -4
-10 -6 -10 -6 -1 -1 11 -31 18 -31 7 0 -3 12 -28 26 -56 14 -28 23 -53 21 -55
-3 -3 -17 22 -33 56 -15 33 -31 60 -36 60 -8 0 9 -45 25 -67 6 -8 6 -13 -1
-13 -5 0 -17 18 -26 40 -16 39 -17 40 -66 40 l-49 0 5 -32 c5 -32 5 -32 -11
-13 -9 11 -20 26 -24 33 -5 9 -23 12 -54 10 l-46 -3 20 -44 c10 -24 17 -46 15
-48 -3 -3 -15 18 -27 46 l-22 52 -288 -2 c-232 -1 -287 -3 -283 -14 3 -7 1
-16 -4 -19 -5 -3 -9 2 -8 11 0 9 -4 18 -10 20 -6 2 -10 -8 -9 -26 1 -18 -2
-28 -8 -24 -6 4 -8 0 -5 -8 3 -8 0 -26 -8 -40 -8 -15 -13 -18 -14 -9 0 9 5 21
11 27 8 8 8 13 0 18 -8 4 -6 11 4 22 36 35 16 38 -285 41 -268 2 -295 1 -314
-15 -16 -14 -18 -14 -8 -2 11 15 -14 17 -307 18 -312 1 -320 1 -326 -19 -3
-11 -3 -24 0 -30 4 -6 1 -9 -5 -8 -7 2 -17 -6 -23 -17 -7 -11 -16 -23 -20 -26
-19 -14 -57 -143 -57 -191 0 -84 39 -128 127 -144 21 -4 41 -8 45 -11 4 -2 -6
-25 -21 -51 -46 -78 -91 -157 -221 -383 l-123 -217 -54 -6 c-73 -9 -158 -50
-206 -100 -70 -74 -208 -385 -278 -628 -39 -136 -93 -404 -120 -603 -20 -145
-23 -216 -28 -770 l-6 -610 -18 140 c-57 454 -61 998 -11 1475 16 156 49 390
64 455 5 22 23 105 40 185 35 162 77 312 119 428 125 337 339 753 518 1004 46
64 83 119 83 121 0 3 -104 4 -232 3 l-231 -1 -17 -30 c-68 -122 -80 -145 -80
-155 0 -6 -7 -18 -15 -26 -8 -9 -15 -24 -15 -35 0 -10 -4 -19 -10 -19 -5 0
-10 -6 -10 -13 0 -17 -29 -77 -37 -77 -3 0 -3 48 -1 108 4 83 11 122 32 176
14 37 26 70 26 72 0 3 -53 4 -117 3 -65 -2 -107 -6 -93 -9 14 -4 36 -6 50 -5
14 1 18 0 10 -2 -8 -3 -21 -10 -28 -16 -10 -8 -16 -7 -22 3 -5 8 -12 11 -16 7
-4 -4 -13 1 -20 11 -11 14 -15 15 -23 3 -6 -9 -11 -10 -15 -2 -10 16 -24 13
-29 -6 -4 -17 -5 -17 -6 0 -1 14 -10 17 -50 17 -39 0 -52 -4 -65 -22 l-17 -23
6 23 c4 12 2 22 -4 22 -5 0 -12 -14 -16 -30z m596 -7 c-8 -15 -10 -15 -11 -2
0 17 10 32 18 25 2 -3 -1 -13 -7 -23z m1099 18 c0 -5 -6 -11 -12 -14 -9 -3 -6
-11 9 -24 13 -11 20 -23 16 -26 -10 -11 -43 40 -37 57 7 17 24 22 24 7z m40
-2 c0 -8 5 -8 15 1 18 15 20 5 3 -14 -10 -11 -15 -11 -25 0 -16 15 -17 24 -3
24 6 0 10 -5 10 -11z m886 -45 c-3 -9 9 -14 42 -17 30 -2 17 -4 -35 -5 -56 -1
-83 -6 -83 -14 0 -6 -3 -8 -6 -5 -14 14 18 37 42 31 17 -4 26 -1 30 10 10 25
-4 32 -21 10 -8 -10 -15 -14 -15 -7 0 6 -3 20 -6 30 -5 15 -4 16 5 3 10 -13
13 -12 23 4 11 19 11 19 20 -4 5 -13 7 -29 4 -36z m1404 44 c0 6 5 12 11 12 6
0 8 -8 4 -19 -3 -11 -1 -22 4 -26 7 -4 8 1 4 11 -4 12 -3 15 5 10 6 -4 11 -18
10 -32 l-2 -25 -28 33 c-15 18 -28 38 -28 43 0 6 5 3 10 -5 6 -10 10 -11 10
-2z m790 2 c0 -5 -4 -10 -10 -10 -5 0 -10 5 -10 10 0 6 5 10 10 10 6 0 10 -4
10 -10z m-1041 -19 c12 -8 12 -12 2 -25 -19 -23 -28 -20 -28 9 0 27 4 30 26
16z m-3565 -16 c-4 -8 -8 -15 -10 -15 -2 0 -4 7 -4 15 0 8 4 15 10 15 5 0 7
-7 4 -15z m36 11 c0 -3 -4 -8 -10 -11 -5 -3 -10 -1 -10 4 0 6 5 11 10 11 6 0
10 -2 10 -4z m2291 -29 l-24 -22 19 27 c10 14 21 24 23 22 3 -3 -6 -15 -18
-27z m-2476 13 c3 -5 2 -10 -4 -10 -5 0 -13 5 -16 10 -3 6 -2 10 4 10 5 0 13
-4 16 -10z m1759 -6 c3 -8 2 -12 -4 -9 -6 3 -10 10 -10 16 0 14 7 11 14 -7z
m66 12 c0 -3 -4 -8 -10 -11 -5 -3 -10 -1 -10 4 0 6 5 11 10 11 6 0 10 -2 10
-4z m1239 -36 c0 -10 -3 -8 -9 5 -12 27 -12 43 0 25 5 -8 9 -22 9 -30z m235 1
c-5 -5 -20 -5 -34 0 -24 7 -24 7 -2 8 14 1 22 7 22 19 1 16 1 16 11 -1 6 -11
7 -22 3 -26z m104 19 c7 -11 9 -20 4 -20 -4 0 -13 9 -20 20 -7 11 -9 20 -4 20
4 0 13 -9 20 -20z m370 -25 c-3 -3 -9 2 -12 12 -6 14 -5 15 5 6 7 -7 10 -15 7
-18z m-3648 0 c-12 -15 -43 -15 -57 0 -5 4 2 6 13 3 12 -3 28 -2 35 3 20 13
23 11 9 -6z m1420 0 c-7 -9 -15 -13 -17 -11 -7 7 7 26 19 26 6 0 6 -6 -2 -15z
m55 5 c3 -5 -1 -10 -10 -10 -9 0 -13 5 -10 10 3 6 8 10 10 10 2 0 7 -4 10 -10z
m1605 -11 c0 -6 -4 -7 -10 -4 -5 3 -10 11 -10 16 0 6 5 7 10 4 6 -3 10 -11 10
-16z m826 -4 c1 -14 -2 -22 -7 -19 -11 6 -12 44 -1 44 4 0 8 -11 8 -25z m38
-20 l7 -40 -16 29 c-9 16 -13 36 -10 44 8 20 11 14 19 -33z m-2390 23 c-4 -7
-14 -21 -22 -30 -19 -23 -5 -23 20 -1 10 9 18 12 18 7 0 -17 -41 -37 -53 -25
-8 8 -4 18 13 36 26 27 35 32 24 13z m716 2 c0 -5 -7 -10 -15 -10 -8 0 -15 5
-15 10 0 6 7 10 15 10 8 0 15 -4 15 -10z m80 -47 c-1 -17 -1 -17 -11 0 -6 9
-14 15 -20 12 -11 -7 -11 -3 -3 19 5 13 8 13 20 1 8 -7 14 -22 14 -32z m1110
26 c0 -5 -4 -9 -10 -9 -5 0 -10 7 -10 16 0 8 5 12 10 9 6 -3 10 -10 10 -16z
m-3554 -15 c-4 -9 -9 -15 -11 -12 -3 3 -3 13 1 22 4 9 9 15 11 12 3 -3 3 -13
-1 -22z m1549 12 c11 -11 11 -18 -6 -45 -24 -40 -33 -40 -11 0 13 24 14 33 5
36 -7 3 -13 9 -13 14 0 13 9 11 25 -5z m1535 -16 c12 -23 12 -24 -3 -11 -10 7
-17 20 -17 29 0 18 3 16 20 -18z m-3061 -25 c-43 -45 -59 -54 -59 -34 0 5 4 8
9 5 5 -3 21 12 36 34 15 22 34 40 42 40 9 0 -3 -19 -28 -45z m2301 30 c0 -8
-4 -15 -10 -15 -5 0 -10 7 -10 15 0 8 5 15 10 15 6 0 10 -7 10 -15z m33 -15
c-3 -11 -9 -17 -15 -14 -5 3 -4 12 3 20 16 19 18 18 12 -6z m990 5 c-3 -9 -8
-14 -10 -11 -3 3 -2 9 2 15 9 16 15 13 8 -4z m107 -20 c0 -8 -2 -15 -4 -15 -2
0 -6 7 -10 15 -3 8 -1 15 4 15 6 0 10 -7 10 -15z m-1153 -17 c-3 -8 -6 -5 -6
6 -1 11 2 17 5 13 3 -3 4 -12 1 -19z m1293 18 c0 -11 -19 -15 -25 -6 -3 5 1
10 9 10 9 0 16 -2 16 -4z m448 -31 c-3 -3 -9 2 -12 12 -6 14 -5 15 5 6 7 -7
10 -15 7 -18z m52 15 c0 -5 -4 -10 -10 -10 -5 0 -10 5 -10 10 0 6 5 10 10 10
6 0 10 -4 10 -10z m-2523 -19 c1 -11 -6 -25 -15 -32 -14 -11 -15 -11 -4 1 17
20 15 35 -3 20 -8 -7 -15 -19 -15 -26 0 -8 -5 -14 -11 -14 -12 0 -4 16 24 48
25 27 22 26 24 3z m1542 -13 c6 -18 7 -28 2 -23 -10 12 -25 55 -18 55 3 0 10
-15 16 -32z m741 16 c0 -2 -7 -4 -15 -4 -8 0 -15 4 -15 10 0 5 7 7 15 4 8 -4
15 -8 15 -10z m-1489 -17 c-10 -9 -11 -8 -5 6 3 10 9 15 12 12 3 -3 0 -11 -7
-18z m2479 -8 c0 -6 -4 -7 -10 -4 -5 3 -10 11 -10 16 0 6 5 7 10 4 6 -3 10
-11 10 -16z m-4591 -299 c-17 -47 -44 -125 -61 -175 -16 -49 -32 -92 -35 -95
-3 -3 -3 46 1 107 8 126 38 258 88 384 l33 84 3 -110 c2 -102 0 -116 -29 -195z
m-299 286 c0 -2 -8 -10 -17 -17 -16 -13 -17 -12 -4 4 13 16 21 21 21 13z
m2417 -19 c1 -11 1 -18 0 -16 -2 2 -8 11 -15 20 -9 12 -9 16 1 16 7 0 14 -9
14 -20z m-939 -12 c-3 -3 -9 2 -12 12 -6 14 -5 15 5 6 7 -7 10 -15 7 -18z
m3532 21 c0 -2 -7 -7 -16 -10 -8 -3 -12 -2 -9 4 6 10 25 14 25 6z m-2639 -49
c-10 -9 -11 -8 -5 6 3 10 9 15 12 12 3 -3 0 -11 -7 -18z m-2169 -264 c-6 -26
-14 -115 -17 -198 -4 -82 -11 -167 -16 -187 -63 -251 -117 -667 -135 -1058
l-8 -155 -13 110 c-21 171 -12 620 16 795 48 300 90 494 142 656 32 100 48
120 31 37z m1298 -18 c41 -14 93 -30 115 -34 50 -9 50 -20 -6 -153 l-41 -96
-77 -27 c-42 -14 -138 -49 -214 -77 -75 -28 -140 -48 -143 -45 -6 6 156 326
201 397 12 19 25 45 29 57 8 24 5 24 136 -22z m421 -166 c127 -49 178 -72 179
-80 0 -8 -91 -19 -170 -19 -36 -1 -94 -7 -130 -15 -78 -17 -80 -17 -80 -6 0
21 73 161 84 161 7 0 59 -18 117 -41z m2033 -781 c30 -86 72 -214 91 -285 41
-146 106 -320 177 -472 26 -56 48 -106 48 -111 0 -4 -15 -14 -32 -22 -18 -8
-26 -12 -18 -10 67 17 68 16 97 -33 35 -60 114 -165 138 -185 10 -8 2 6 -17
32 -38 49 -118 189 -118 205 0 5 12 14 28 21 l27 11 -33 -2 c-33 -2 -34 -1
-69 83 -39 95 -93 248 -93 264 0 6 31 -45 68 -114 120 -220 277 -430 412 -552
33 -30 60 -58 60 -61 0 -4 -14 -7 -31 -7 -39 0 -123 35 -174 74 -33 24 -30 19
20 -33 72 -74 123 -101 192 -101 59 0 63 -6 63 -108 0 -61 -1 -63 -22 -56 -32
9 -96 42 -101 51 -3 5 17 19 44 32 27 14 49 29 49 33 0 5 -17 0 -37 -10 -73
-37 -100 -36 -188 7 -75 36 -122 53 -270 98 l-60 18 125 6 c106 5 99 6 -45 3
-135 -2 -195 -8 -290 -28 -147 -31 -330 -88 -409 -128 l-59 -30 23 39 c44 72
64 88 164 124 28 9 45 18 39 18 -7 1 -42 -10 -77 -23 l-64 -25 28 62 c16 33
35 66 42 72 34 31 149 69 243 81 88 12 91 13 28 9 -40 -2 -73 -2 -73 1 0 6
223 110 254 118 16 4 26 9 23 12 -3 3 -99 -26 -214 -65 -115 -39 -215 -71
-222 -71 -9 0 -11 6 -6 18 37 85 79 228 105 353 41 197 51 310 57 593 3 154 9
273 13 265 5 -8 33 -85 64 -171z m277 -83 c136 -259 255 -427 439 -620 73 -76
69 -65 91 -243 6 -51 8 -96 5 -99 -6 -7 -22 12 -121 143 -155 205 -305 479
-413 756 -83 210 -83 217 -1 63z m-2230 -23 c-24 -157 -34 -467 -22 -689 7
-118 11 -217 8 -219 -2 -2 -72 19 -155 47 -149 51 -152 52 -146 78 34 157 156
507 241 691 22 47 48 104 58 127 10 24 21 41 23 39 2 -3 -1 -36 -7 -74z m-710
-74 c-52 -263 -64 -381 -65 -658 0 -205 4 -289 17 -369 9 -58 17 -112 17 -121
0 -17 -58 -50 -89 -50 -24 0 -89 27 -124 52 -16 11 -30 18 -33 15 -3 -3 22
-22 55 -43 33 -22 60 -42 60 -45 1 -3 -32 -20 -71 -37 -64 -27 -74 -28 -82
-14 -5 8 -6 102 -3 211 5 157 12 228 35 356 42 223 100 421 157 535 12 25 48
98 80 163 31 65 59 116 62 113 2 -2 -5 -51 -16 -108z m867 -400 c3 -142 8
-189 38 -362 14 -76 23 -141 20 -144 -3 -2 -35 4 -72 14 l-67 19 7 115 c6 108
21 231 46 380 21 125 26 120 28 -22z m1527 -43 c-16 -150 -48 -349 -68 -430
l-13 -50 -72 -24 c-40 -13 -75 -22 -78 -19 -3 4 5 23 19 45 25 41 93 185 126
269 22 58 64 210 81 297 7 32 13 57 15 55 2 -2 -2 -67 -10 -143z m-2350 -400
c8 -55 25 -135 35 -179 11 -43 20 -81 20 -83 0 -6 -68 -33 -85 -33 -11 0 -15
11 -15 45 l0 45 38 2 37 1 -37 4 c-35 4 -36 5 -43 54 -8 57 4 438 14 454 3 6
9 -39 13 -100 3 -60 14 -155 23 -210z m1538 130 c-41 -243 -86 -395 -155 -525
-74 -139 -125 -221 -196 -318 -30 -41 -51 -76 -48 -79 17 -17 279 138 389 229
27 22 50 38 53 35 7 -7 -39 -80 -86 -137 -56 -69 -59 -82 -4 -21 27 30 92 112
144 182 104 138 212 270 217 265 13 -12 -112 -226 -178 -306 -53 -64 -53 -72
0 -39 93 56 225 180 330 307 29 35 50 52 66 52 12 0 55 14 95 30 81 33 89 35
72 18 -7 -7 -12 -25 -12 -40 0 -37 -53 -176 -86 -223 -32 -48 -24 -56 12 -12
35 42 114 85 114 63 0 -20 -72 -109 -110 -136 -17 -12 -29 -24 -26 -27 6 -6
46 15 74 40 12 12 22 15 22 9 0 -19 -49 -92 -78 -118 -15 -13 -22 -23 -17 -23
11 -1 45 24 175 127 l80 63 0 -114 c0 -62 3 -116 6 -120 3 -3 20 3 37 14 18
10 42 19 53 19 27 0 74 -37 74 -58 0 -19 39 -73 40 -55 0 6 -6 18 -12 25 -12
11 -13 25 -9 76 1 6 11 12 24 12 15 0 26 -10 36 -31 19 -43 70 -66 110 -49 17
7 39 26 49 42 15 26 18 27 29 11 12 -16 13 -16 13 3 1 18 1 18 12 0 7 -14 8
-29 0 -54 -14 -44 -11 -47 15 -23 13 12 29 18 42 14 16 -4 21 -1 21 13 0 14 3
15 12 6 11 -11 0 -71 -23 -114 -8 -15 -5 -18 21 -18 23 0 35 7 50 33 23 36 67
167 76 227 l7 40 -32 -6 c-58 -12 -105 43 -66 76 9 7 32 13 52 12 49 -2 53 3
42 44 -6 19 -9 39 -7 45 5 14 137 -53 196 -101 62 -49 66 -73 26 -151 -14 -28
-23 -53 -21 -55 2 -2 26 19 53 48 64 69 135 128 146 122 5 -3 8 -218 8 -477
-1 -259 -5 -465 -9 -458 -6 10 -10 9 -15 -4 -10 -26 -7 -35 9 -29 17 7 19 -33
8 -185 -7 -102 -12 -109 -92 -126 -31 -7 -33 -5 -26 11 22 54 75 217 72 221
-3 2 -20 -43 -40 -99 -67 -194 -100 -273 -183 -435 -163 -319 -210 -368 -709
-744 -404 -304 -546 -401 -732 -501 -60 -33 -88 -42 -141 -45 -66 -5 -69 -4
-197 60 -321 162 -786 469 -1085 718 -139 115 -294 276 -356 370 -74 111 -166
297 -212 429 -67 191 -133 418 -137 471 -1 14 -5 30 -8 36 -10 16 -37 163 -37
202 0 30 2 32 17 20 14 -13 16 -11 10 11 -52 222 -58 267 -59 440 -1 177 13
351 35 425 12 43 12 46 31 -221 2 -22 8 -49 14 -60 5 -10 22 -59 37 -109 37
-123 87 -243 130 -309 20 -31 37 -56 39 -56 2 0 -16 35 -40 78 -24 42 -58 112
-75 155 -32 84 -65 214 -56 223 11 11 65 -27 135 -95 40 -39 75 -71 77 -71 2
0 -7 21 -20 46 -35 65 -33 106 6 138 65 55 108 66 109 28 1 -9 7 -30 16 -47
l14 -30 -5 33 c-3 17 -8 45 -11 61 -5 25 -2 31 22 44 72 36 69 40 69 -96 0
-75 5 -141 14 -170 l14 -48 22 21 c31 29 98 28 129 -4 l24 -23 11 23 c14 32
51 31 82 -2 37 -40 56 -47 94 -34 19 6 35 15 35 18 1 17 42 54 50 46 11 -11
14 -59 6 -94 -4 -14 -3 -19 0 -11 4 7 15 22 26 33 15 15 22 17 34 7 11 -9 14
-8 14 7 0 14 3 15 12 6 10 -10 10 -17 0 -33 -7 -11 -10 -30 -6 -41 4 -15 3
-18 -7 -13 -9 6 -11 3 -6 -8 4 -10 1 -17 -6 -17 -19 0 16 -20 36 -20 12 0 26
18 43 54 26 57 59 194 49 204 -3 4 -22 7 -41 9 -20 1 -42 7 -50 14 -36 30 3
79 63 79 30 0 33 2 33 32 l0 32 48 -45 c50 -48 119 -104 164 -132 16 -10 28
-27 30 -44 2 -16 8 -28 13 -27 13 0 111 118 172 205 114 165 240 402 333 623
29 69 54 125 55 124 1 -2 -8 -66 -22 -143z m-1015 -116 c34 -16 62 -30 62 -33
0 -5 -239 4 -257 9 -11 4 -7 35 12 92 4 12 29 3 183 -68z m109 -58 c25 -7 29
-13 37 -69 5 -35 7 -65 4 -67 -2 -3 -19 0 -38 5 -50 14 -48 4 2 -11 38 -13 43
-18 46 -48 3 -31 2 -33 -20 -26 -78 25 -271 64 -315 65 -28 0 -54 4 -57 9 -5
8 0 47 20 140 l5 24 144 -8 c80 -3 157 -10 172 -14z m164 -65 c71 -33 115 -88
145 -182 39 -121 41 -120 -96 -47 -112 61 -120 67 -120 95 0 28 2 30 28 24 25
-5 26 -5 5 6 -20 10 -23 19 -23 70 0 32 2 58 4 58 2 0 28 -11 57 -24z m109
-57 c0 -6 -4 -7 -10 -4 -5 3 -10 11 -10 16 0 6 5 7 10 4 6 -3 10 -11 10 -16z
m47 -246 c13 -5 23 -37 22 -78 0 -30 0 -30 -54 28 -67 71 -73 95 -17 71 20 -9
42 -18 49 -21z m1969 -29 c-3 -8 -2 -12 4 -9 16 10 12 -11 -5 -25 -17 -14 -35
-5 -35 19 0 21 9 31 28 31 9 0 12 -6 8 -16z m-368 -17 c2 -10 -3 -17 -12 -17
-18 0 -29 16 -21 31 9 14 29 6 33 -14z m-1948 -19 c0 -19 -2 -20 -10 -8 -6 10
-10 11 -10 3 0 -7 -4 -13 -10 -13 -5 0 -10 9 -10 20 0 13 7 20 20 20 14 0 20
-7 20 -22z m363 -56 c12 -21 16 -62 7 -62 -11 0 -70 87 -70 103 0 8 56 -27 63
-41z m1278 -5 c-10 -9 -11 -8 -5 6 3 10 9 15 12 12 3 -3 0 -11 -7 -18z m2697
-392 c-10 -8 -178 -13 -178 -5 0 5 37 10 83 12 74 3 104 1 95 -7z m-6858 -60
c0 -8 -2 -15 -4 -15 -2 0 -6 7 -10 15 -3 8 -1 15 4 15 6 0 10 -7 10 -15z
m6617 -17 c-3 -8 -6 -5 -6 6 -1 11 2 17 5 13 3 -3 4 -12 1 -19z m-6607 -39 c0
-6 -4 -7 -10 -4 -5 3 -10 11 -10 16 0 6 5 7 10 4 6 -3 10 -11 10 -16z m1515
-326 c4 -29 3 -43 -4 -43 -6 0 -12 10 -12 23 -1 12 -3 35 -5 51 -5 44 13 17
21 -31z m29 -120 c9 -32 32 -107 52 -167 19 -59 33 -110 31 -113 -8 -7 -108
46 -112 60 -2 7 -6 72 -10 145 -5 112 -4 132 9 132 9 0 20 -21 30 -57z m-689
-2564 c9 -10 -22 -80 -48 -108 -30 -33 -83 -53 -117 -46 -40 9 -168 151 -143
158 26 8 300 3 308 -4z m5479 -51 c-33 -35 -77 -84 -98 -111 -47 -59 -65 -69
-97 -54 -18 10 -29 30 -46 87 -28 96 -28 108 0 115 29 7 187 22 252 24 l49 1
-60 -62z m-1152 1 c-10 -142 -32 -468 -32 -485 0 -22 -34 -39 -138 -70 -41
-13 -44 -12 -39 4 3 9 35 103 70 207 61 178 79 238 107 343 13 51 36 52 32 1z
m-3734 15 c7 -2 12 -20 12 -43 0 -22 4 -73 9 -113 5 -40 12 -108 16 -151 l6
-78 -23 12 c-13 6 -53 29 -90 51 l-68 39 0 149 0 150 63 -6 c34 -3 68 -7 75
-10z m432 -551 c0 -1 -13 5 -29 13 -26 13 -29 20 -29 61 l0 47 29 -60 c16 -32
29 -60 29 -61z"/>
<path d="M4798 4633 c7 -3 16 -2 19 1 4 3 -2 6 -13 5 -11 0 -14 -3 -6 -6z"/>
<path d="M4758 4623 c7 -3 16 -2 19 1 4 3 -2 6 -13 5 -11 0 -14 -3 -6 -6z"/>
<path d="M4710 4009 c0 -19 70 -79 91 -79 14 0 19 -7 19 -25 0 -25 1 -25 83
-23 62 1 69 3 29 5 -34 3 -55 9 -59 19 -3 7 -9 14 -15 14 -5 0 -6 -4 -3 -10 3
-5 0 -7 -7 -4 -24 10 -62 67 -60 91 2 21 -2 23 -38 23 -23 0 -40 -5 -40 -11z"/>
<path d="M2457 4001 c-36 -6 -37 -7 -23 -26 12 -16 19 -18 42 -10 15 6 28 18
30 28 1 9 -1 16 -4 16 -4 -1 -24 -5 -45 -8z"/>
<path d="M2872 3928 c-19 -19 -14 -33 13 -34 19 -2 23 1 16 10 -7 9 -7 16 1
24 9 9 8 12 -3 12 -8 0 -20 -5 -27 -12z"/>
<path d="M5150 3900 c-31 -27 -32 -30 -12 -30 12 0 22 5 22 11 0 6 10 19 23
30 12 10 18 18 12 18 -5 0 -26 -13 -45 -29z"/>
<path d="M2587 3900 c3 -11 14 -20 24 -20 18 0 18 1 -1 20 -11 11 -22 20 -24
20 -2 0 -2 -9 1 -20z"/>
<path d="M2678 3893 c23 -2 61 -2 85 0 23 2 4 4 -43 4 -47 0 -66 -2 -42 -4z"/>
<path d="M5045 3880 l-50 -7 53 -1 c29 -1 52 2 52 8 0 6 -1 9 -2 8 -2 0 -25
-4 -53 -8z"/>
<path d="M3825 3384 c-4 -36 -3 -60 4 -67 8 -8 11 8 11 56 0 37 -2 67 -4 67
-2 0 -7 -25 -11 -56z"/>
<path d="M3465 2610 c-38 -4 7 -7 120 -7 131 0 161 2 110 7 -84 9 -150 9 -230
0z"/>
<path d="M4123 2613 c15 -2 39 -2 55 0 15 2 2 4 -28 4 -30 0 -43 -2 -27 -4z"/>
<path d="M4278 2613 c6 -2 18 -2 25 0 6 3 1 5 -13 5 -14 0 -19 -2 -12 -5z"/>
<path d="M4003 2603 c15 -2 39 -2 55 0 15 2 2 4 -28 4 -30 0 -43 -2 -27 -4z"/>
<path d="M4348 2596 c18 -9 46 -25 62 -36 15 -11 32 -20 36 -20 18 0 -74 59
-101 65 -30 6 -30 6 3 -9z"/>
<path d="M3315 2550 c-10 -11 -16 -22 -13 -25 3 -3 13 6 22 20 20 30 16 32 -9
5z"/>
<path d="M3130 4556 c0 -2 7 -7 16 -10 8 -3 12 -2 9 4 -6 10 -25 14 -25 6z"/>
<path d="M6931 4064 c0 -11 3 -14 6 -6 3 7 2 16 -1 19 -3 4 -6 -2 -5 -13z"/>
<path d="M6956 3936 c3 -9 11 -16 16 -16 13 0 5 23 -10 28 -7 2 -10 -2 -6 -12z"/>
<path d="M166 3875 c10 -8 23 -15 28 -15 6 0 1 7 -10 15 -10 8 -23 15 -28 15
-6 0 -1 -7 10 -15z"/>
</g>
</svg>
